<svg width="83" height="61" viewBox="0 0 83 61" fill="none" xmlns="http://www.w3.org/2000/svg">
<path d="M2.00118 37.625H25.8088C26.9034 37.625 27.7941 36.7207 27.7941 35.6094V10.0781C27.7941 10.0472 27.7809 10.0203 27.7769 9.99078C27.7732 9.96262 27.7675 9.93477 27.7597 9.90747C27.7338 9.79294 27.678 9.68759 27.5982 9.60244L18.3349 0.197531C18.2299 0.0968561 18.0958 0.0332376 17.9524 0.016125C17.9246 0.0134375 17.8981 0 17.8676 0H1.99324C0.894706 0 0 0.904344 0 2.01562V35.6094C0 36.7207 0.897353 37.625 2.00118 37.625ZM18.5294 2.29378L25.5349 9.40625H19.1912C19.0157 9.40625 18.8473 9.33546 18.7232 9.20946C18.5991 9.08346 18.5294 8.91257 18.5294 8.73438V2.29378ZM1.32353 2.01562C1.32353 1.64475 1.62397 1.34375 1.99324 1.34375H17.2059V8.73438C17.2059 9.84566 18.0966 10.75 19.1912 10.75H26.4706V35.6094C26.4706 35.7876 26.4009 35.9585 26.2768 36.0845C26.1527 36.2105 25.9843 36.2812 25.8088 36.2812H2.00118C1.91323 36.2823 1.82593 36.2658 1.74428 36.2326C1.66263 36.1994 1.58821 36.1502 1.52528 36.0878C1.46236 36.0254 1.41215 35.9511 1.37753 35.869C1.34292 35.7869 1.32457 35.6987 1.32353 35.6094V2.01562Z" fill="white"/>
<path d="M5.95595 16.125H21.8383C22.0138 16.125 22.1821 16.0542 22.3062 15.9282C22.4304 15.8022 22.5001 15.6313 22.5001 15.4531C22.5001 15.2749 22.4304 15.104 22.3062 14.978C22.1821 14.852 22.0138 14.7812 21.8383 14.7812H5.95595C5.78044 14.7812 5.61212 14.852 5.48802 14.978C5.36391 15.104 5.29419 15.2749 5.29419 15.4531C5.29419 15.6313 5.36391 15.8022 5.48802 15.9282C5.61212 16.0542 5.78044 16.125 5.95595 16.125Z" fill="white"/>
<path d="M5.95595 21.5H21.8383C22.0138 21.5 22.1821 21.4292 22.3062 21.3032C22.4304 21.1772 22.5001 21.0063 22.5001 20.8281C22.5001 20.6499 22.4304 20.479 22.3062 20.353C22.1821 20.227 22.0138 20.1562 21.8383 20.1562H5.95595C5.78044 20.1562 5.61212 20.227 5.48802 20.353C5.36391 20.479 5.29419 20.6499 5.29419 20.8281C5.29419 21.0063 5.36391 21.1772 5.48802 21.3032C5.61212 21.4292 5.78044 21.5 5.95595 21.5Z" fill="white"/>
<path d="M5.95595 10.75H12.5736C12.7491 10.75 12.9174 10.6792 13.0415 10.5532C13.1656 10.4272 13.2354 10.2563 13.2354 10.0781C13.2354 9.89993 13.1656 9.72904 13.0415 9.60304C12.9174 9.47704 12.7491 9.40625 12.5736 9.40625H5.95595C5.78044 9.40625 5.61212 9.47704 5.48802 9.60304C5.36391 9.72904 5.29419 9.89993 5.29419 10.0781C5.29419 10.2563 5.36391 10.4272 5.48802 10.5532C5.61212 10.6792 5.78044 10.75 5.95595 10.75Z" fill="white"/>
<path d="M5.95595 26.875H21.8383C22.0138 26.875 22.1821 26.8042 22.3062 26.6782C22.4304 26.5522 22.5001 26.3813 22.5001 26.2031C22.5001 26.0249 22.4304 25.854 22.3062 25.728C22.1821 25.602 22.0138 25.5312 21.8383 25.5312H5.95595C5.78044 25.5312 5.61212 25.602 5.48802 25.728C5.36391 25.854 5.29419 26.0249 5.29419 26.2031C5.29419 26.3813 5.36391 26.5522 5.48802 26.6782C5.61212 26.8042 5.78044 26.875 5.95595 26.875Z" fill="white"/>
<path d="M5.95595 32.25H21.8383C22.0138 32.25 22.1821 32.1792 22.3062 32.0532C22.4304 31.9272 22.5001 31.7563 22.5001 31.5781C22.5001 31.3999 22.4304 31.229 22.3062 31.103C22.1821 30.977 22.0138 30.9062 21.8383 30.9062H5.95595C5.78044 30.9062 5.61212 30.977 5.48802 31.103C5.36391 31.229 5.29419 31.3999 5.29419 31.5781C5.29419 31.7563 5.36391 31.9272 5.48802 32.0532C5.61212 32.1792 5.78044 32.25 5.95595 32.25Z" fill="white"/>
<path d="M28.4558 6.71875H34.4117V14.1094C34.4117 15.2207 35.3024 16.125 36.397 16.125H43.6764V40.9844C43.6764 41.1626 43.6067 41.3335 43.4826 41.4595C43.3585 41.5855 43.1901 41.6562 43.0146 41.6562H19.207C19.119 41.6573 19.0317 41.6408 18.9501 41.6076C18.8684 41.5744 18.794 41.5252 18.7311 41.4628C18.6682 41.4004 18.618 41.3261 18.5833 41.244C18.5487 41.1619 18.5304 41.0737 18.5293 40.9844V39.6406C18.5293 39.4624 18.4596 39.2915 18.3355 39.1655C18.2114 39.0395 18.0431 38.9688 17.8676 38.9688C17.6921 38.9688 17.5237 39.0395 17.3996 39.1655C17.2755 39.2915 17.2058 39.4624 17.2058 39.6406V40.9844C17.2058 42.0957 18.1032 43 19.207 43H43.0146C44.1092 43 44.9999 42.0957 44.9999 40.9844V15.4531C44.9999 15.4222 44.9867 15.3953 44.9827 15.3658C44.979 15.3376 44.9733 15.3098 44.9655 15.2825C44.9396 15.1679 44.8838 15.0626 44.804 14.9774L35.5407 5.57253C35.4364 5.47102 35.3018 5.40766 35.1582 5.39247C35.1304 5.38844 35.1039 5.375 35.0735 5.375H28.4558C28.2803 5.375 28.112 5.44579 27.9879 5.57179C27.8638 5.69779 27.794 5.86868 27.794 6.04688C27.794 6.22507 27.8638 6.39596 27.9879 6.52196C28.112 6.64796 28.2803 6.71875 28.4558 6.71875ZM36.397 14.7812C36.2215 14.7812 36.0532 14.7105 35.929 14.5845C35.8049 14.4585 35.7352 14.2876 35.7352 14.1094V7.66878L42.7407 14.7812H36.397Z" fill="white"/>
<path d="M31.1029 21.5H39.0441C39.2196 21.5 39.3879 21.4292 39.512 21.3032C39.6361 21.1772 39.7059 21.0063 39.7059 20.8281C39.7059 20.6499 39.6361 20.479 39.512 20.353C39.3879 20.227 39.2196 20.1562 39.0441 20.1562H31.1029C30.9274 20.1562 30.7591 20.227 30.635 20.353C30.5109 20.479 30.4412 20.6499 30.4412 20.8281C30.4412 21.0063 30.5109 21.1772 30.635 21.3032C30.7591 21.4292 30.9274 21.5 31.1029 21.5Z" fill="white"/>
<path d="M31.1029 26.875H39.0441C39.2196 26.875 39.3879 26.8042 39.512 26.6782C39.6361 26.5522 39.7059 26.3813 39.7059 26.2031C39.7059 26.0249 39.6361 25.854 39.512 25.728C39.3879 25.602 39.2196 25.5312 39.0441 25.5312H31.1029C30.9274 25.5312 30.7591 25.602 30.635 25.728C30.5109 25.854 30.4412 26.0249 30.4412 26.2031C30.4412 26.3813 30.5109 26.5522 30.635 26.6782C30.7591 26.8042 30.9274 26.875 31.1029 26.875Z" fill="white"/>
<path d="M31.1029 32.25H39.0441C39.2196 32.25 39.3879 32.1792 39.512 32.0532C39.6361 31.9272 39.7059 31.7563 39.7059 31.5781C39.7059 31.3999 39.6361 31.229 39.512 31.103C39.3879 30.977 39.2196 30.9062 39.0441 30.9062H31.1029C30.9274 30.9062 30.7591 30.977 30.635 31.103C30.5109 31.229 30.4412 31.3999 30.4412 31.5781C30.4412 31.7563 30.5109 31.9272 30.635 32.0532C30.7591 32.1792 30.9274 32.25 31.1029 32.25Z" fill="white"/>
<path d="M31.1029 37.625H39.0441C39.2196 37.625 39.3879 37.5542 39.512 37.4282C39.6361 37.3022 39.7059 37.1313 39.7059 36.9531C39.7059 36.7749 39.6361 36.604 39.512 36.478C39.3879 36.352 39.2196 36.2812 39.0441 36.2812H31.1029C30.9274 36.2812 30.7591 36.352 30.635 36.478C30.5109 36.604 30.4412 36.7749 30.4412 36.9531C30.4412 37.1313 30.5109 37.3022 30.635 37.4282C30.7591 37.5542 30.9274 37.625 31.1029 37.625Z" fill="white"/>
<path d="M65.5 25.5332C62.0388 25.5332 58.6554 26.5638 55.7775 28.4946C52.8997 30.4254 50.6566 33.1697 49.3321 36.3805C48.0076 39.5914 47.661 43.1245 48.3363 46.5331C49.0115 49.9416 50.6782 53.0726 53.1256 55.5301C55.5731 57.9876 58.6913 59.6611 62.0859 60.3391C65.4806 61.0171 68.9993 60.6691 72.197 59.3392C75.3947 58.0092 78.1278 55.757 80.0507 52.8673C81.9736 49.9777 83 46.5803 83 43.105C83 38.4447 81.1563 33.9752 77.8744 30.6799C74.5925 27.3845 70.1413 25.5332 65.5 25.5332ZM74.3266 34.2202L67.4031 45.3014H69.875C70.1651 45.3014 70.4433 45.4172 70.6484 45.6231C70.8535 45.8291 70.9688 46.1084 70.9688 46.3997C70.9688 46.691 70.8535 46.9703 70.6484 47.1763C70.4433 47.3822 70.1651 47.4979 69.875 47.4979H66.8672V49.6944H69.875C70.1651 49.6944 70.4433 49.8101 70.6484 50.0161C70.8535 50.222 70.9688 50.5014 70.9688 50.7926C70.9688 51.0839 70.8535 51.3632 70.6484 51.5692C70.4433 51.7752 70.1651 51.8909 69.875 51.8909H66.8672V54.911C66.8672 55.2751 66.7232 55.6243 66.4668 55.8817C66.2104 56.1392 65.8626 56.2838 65.5 56.2838C65.1374 56.2838 64.7897 56.1392 64.5333 55.8817C64.2769 55.6243 64.1328 55.2751 64.1328 54.911V51.8909H61.125C60.8349 51.8909 60.5567 51.7752 60.3516 51.5692C60.1465 51.3632 60.0313 51.0839 60.0313 50.7926C60.0313 50.5014 60.1465 50.222 60.3516 50.0161C60.5567 49.8101 60.8349 49.6944 61.125 49.6944H64.1328V47.4979H61.125C60.8349 47.4979 60.5567 47.3822 60.3516 47.1763C60.1465 46.9703 60.0313 46.691 60.0313 46.3997C60.0313 46.1084 60.1465 45.8291 60.3516 45.6231C60.5567 45.4172 60.8349 45.3014 61.125 45.3014H63.5969L56.6734 34.2202C56.5779 34.0674 56.5133 33.8971 56.4834 33.7192C56.4534 33.5412 56.4586 33.3591 56.4987 33.1832C56.5388 33.0073 56.6131 32.841 56.7172 32.6939C56.8213 32.5468 56.9532 32.4217 57.1055 32.3258C57.2577 32.2299 57.4273 32.165 57.6045 32.1349C57.7817 32.1048 57.9631 32.1101 58.1383 32.1503C58.3135 32.1906 58.4791 32.2652 58.6256 32.3697C58.7721 32.4742 58.8967 32.6067 58.9922 32.7596L65.5 43.1928L72.0078 32.7706C72.1033 32.6177 72.2279 32.4852 72.3744 32.3807C72.5209 32.2761 72.6865 32.2016 72.8617 32.1613C73.0369 32.121 73.2183 32.1158 73.3955 32.1459C73.5727 32.176 73.7423 32.2409 73.8945 32.3368C74.0468 32.4327 74.1787 32.5578 74.2828 32.7049C74.3869 32.852 74.4612 33.0182 74.5013 33.1942C74.5414 33.3701 74.5466 33.5522 74.5167 33.7301C74.4867 33.9081 74.4221 34.0784 74.3266 34.2312V34.2202Z" fill="white"/>
</svg>
