<svg width="45" height="46" viewBox="0 0 45 46" fill="none" xmlns="http://www.w3.org/2000/svg">
<path d="M34.6126 1.94407C34.6132 1.59991 34.5121 1.26331 34.3219 0.976953C34.1318 0.690596 33.8613 0.467373 33.5446 0.335584C33.228 0.203796 32.8795 0.169376 32.5434 0.236688C32.2073 0.304001 31.8986 0.470014 31.6566 0.713683L24.7337 7.66502C24.5731 7.8267 24.4458 8.01859 24.3591 8.22971C24.2724 8.44083 24.2279 8.66704 24.2283 8.89541V18.6029L21.6634 21.1749C21.1503 21.0382 20.6128 21.0216 20.0923 21.1263C19.5718 21.2311 19.0822 21.4544 18.6611 21.7791C18.2401 22.1038 17.899 22.5212 17.6639 22.9992C17.4289 23.4771 17.3063 24.0029 17.3055 24.5359C17.3062 25.0304 17.412 25.519 17.6158 25.9692C17.8196 26.4194 18.1167 26.8207 18.4873 27.1463C18.8579 27.472 19.2934 27.7145 19.7648 27.8576C20.2361 28.0008 20.7325 28.0413 21.2207 27.9765C21.7089 27.9117 22.1777 27.743 22.5958 27.4817C23.014 27.2204 23.3717 26.8726 23.6453 26.4614C23.9188 26.0502 24.1018 25.5851 24.1821 25.0972C24.2623 24.6094 24.238 24.1099 24.1106 23.6322L26.6756 21.0602H36.3433C36.5708 21.0607 36.796 21.016 37.0063 20.929C37.2166 20.8419 37.4077 20.7141 37.5687 20.5528L44.4915 13.6015C44.7342 13.3584 44.8995 13.0485 44.9666 12.711C45.0336 12.3734 44.9993 12.0235 44.8681 11.7056C44.7368 11.3877 44.5145 11.116 44.2293 10.9251C43.9442 10.7342 43.6089 10.6326 43.2662 10.6332H34.6126V1.94407ZM41.3416 21.6789C41.9373 26.0067 41.1642 30.413 39.1315 34.2759C37.0989 38.1388 33.9094 41.2631 30.0132 43.2078C26.117 45.1525 21.7109 45.8194 17.4169 45.1143C13.1229 44.4092 9.15789 42.3678 6.08156 39.2782C3.00522 36.1886 0.972946 32.2069 0.271604 27.8951C-0.429739 23.5833 0.235278 19.1593 2.17278 15.2474C4.11028 11.3356 7.22241 8.13351 11.0698 6.09326C14.9173 4.05302 19.3057 3.27762 23.6157 3.87654L22.2899 5.20772C21.8072 5.69179 21.4243 6.26663 21.163 6.89938C20.9016 7.53214 20.7671 8.2104 20.7669 8.89541C17.6862 8.89541 14.6746 9.8127 12.1131 11.5313C9.55158 13.2499 7.55511 15.6926 6.37617 18.5505C5.19723 21.4085 4.88876 24.5533 5.48978 27.5872C6.0908 30.6212 7.57431 33.4081 9.75271 35.5954C11.9311 37.7828 14.7066 39.2724 17.7281 39.8759C20.7496 40.4794 23.8815 40.1697 26.7277 38.9859C29.574 37.8021 32.0067 35.7974 33.7182 33.2253C35.4298 30.6532 36.3433 27.6293 36.3433 24.5359C37.7199 24.5347 39.0397 23.9846 40.0124 23.0066L41.3416 21.6789ZM20.7669 12.3711C18.3708 12.3711 16.0285 13.0845 14.0362 14.4212C12.0439 15.7579 10.4911 17.6578 9.57411 19.8806C8.65716 22.1035 8.41724 24.5494 8.8847 26.9092C9.35216 29.2689 10.506 31.4365 12.2003 33.1377C13.8946 34.839 16.0533 35.9976 18.4034 36.467C20.7535 36.9364 23.1894 36.6955 25.4031 35.7748C27.6168 34.854 29.5089 33.2948 30.8402 31.2943C32.1714 29.2938 32.8819 26.9419 32.8819 24.5359H28.1086L27.6759 24.9704C27.5927 26.3056 27.1275 27.5884 26.3362 28.6648C25.5449 29.7411 24.461 30.5653 23.2147 31.0384C21.9684 31.5115 20.6126 31.6135 19.3101 31.332C18.0075 31.0505 16.8135 30.3976 15.8714 29.4516C14.9292 28.5056 14.279 27.3067 13.9987 25.9987C13.7184 24.6908 13.8199 23.3294 14.291 22.078C14.7622 20.8266 15.583 19.7383 16.655 18.9437C17.7269 18.1491 19.0044 17.682 20.3342 17.5985L20.7669 17.164V12.3711Z" fill="white"/>
</svg>
