<svg width="23" height="23" viewBox="0 0 23 23" fill="none" xmlns="http://www.w3.org/2000/svg">
<path d="M17.6957 0H5.30435C4.42829 0.000961769 3.5884 0.332392 2.96894 0.921584C2.34947 1.51078 2.00101 2.30961 2 3.14286V15.7143C2.00101 16.5475 2.34947 17.3464 2.96894 17.9356C3.5884 18.5247 4.42829 18.8562 5.30435 18.8571H6.54348L5.05652 20.7429C4.92507 20.9096 4.86862 21.1191 4.89961 21.3254C4.93059 21.5317 5.04647 21.7178 5.22174 21.8429C5.39701 21.9679 5.61733 22.0216 5.83422 21.9921C6.05111 21.9626 6.24681 21.8524 6.37826 21.6857L8.6087 18.8571H14.3913L16.6217 21.6857C16.7532 21.8524 16.9489 21.9626 17.1658 21.9921C17.3827 22.0216 17.603 21.9679 17.7783 21.8429C17.9535 21.7178 18.0694 21.5317 18.1004 21.3254C18.1314 21.1191 18.0749 20.9096 17.9435 20.7429L16.4565 18.8571H17.6957C18.5717 18.8562 19.4116 18.5247 20.0311 17.9356C20.6505 17.3464 20.999 16.5475 21 15.7143V3.14286C20.999 2.30961 20.6505 1.51078 20.0311 0.921584C19.4116 0.332392 18.5717 0.000961769 17.6957 0ZM6.95652 15.7143C6.71144 15.7143 6.47187 15.6452 6.2681 15.5157C6.06432 15.3862 5.9055 15.2021 5.81171 14.9867C5.71793 14.7714 5.69339 14.5344 5.7412 14.3058C5.78901 14.0772 5.90703 13.8672 6.08032 13.7023C6.25362 13.5375 6.47441 13.4253 6.71478 13.3798C6.95515 13.3343 7.2043 13.3577 7.43072 13.4469C7.65714 13.5361 7.85066 13.6871 7.98682 13.8809C8.12298 14.0747 8.19565 14.3026 8.19565 14.5357C8.19565 14.8483 8.0651 15.1481 7.83272 15.3691C7.60034 15.5901 7.28516 15.7143 6.95652 15.7143ZM10.6739 9.42857H3.65217V5.5H10.6739V9.42857ZM16.0435 15.7143C15.7984 15.7143 15.5588 15.6452 15.3551 15.5157C15.1513 15.3862 14.9925 15.2021 14.8987 14.9867C14.8049 14.7714 14.7803 14.5344 14.8282 14.3058C14.876 14.0772 14.994 13.8672 15.1673 13.7023C15.3406 13.5375 15.5614 13.4253 15.8017 13.3798C16.0421 13.3343 16.2913 13.3577 16.5177 13.4469C16.7441 13.5361 16.9376 13.6871 17.0738 13.8809C17.2099 14.0747 17.2826 14.3026 17.2826 14.5357C17.2826 14.8483 17.1521 15.1481 16.9197 15.3691C16.6873 15.5901 16.3721 15.7143 16.0435 15.7143ZM19.3478 9.42857H12.3261V5.5H19.3478V9.42857Z" fill="#3E77BD"/>
</svg>
