<svg width="19" height="18" viewBox="0 0 19 18" fill="none" xmlns="http://www.w3.org/2000/svg">
<path fill-rule="evenodd" clip-rule="evenodd" d="M14.2077 10.9741C14.0205 10.8615 13.8129 10.7861 13.5966 10.7521C13.3963 10.7089 13.1885 10.7135 12.9905 10.7655C12.8182 10.8167 12.651 10.8833 12.4909 10.9645C12.3352 11.0428 12.189 11.1383 12.0549 11.249C11.9244 11.3576 11.7988 11.4562 11.6772 11.5437C11.5665 11.6241 11.4496 11.6957 11.3275 11.7577C11.2045 11.8187 11.0633 11.8338 10.9298 11.8003C10.7963 11.7669 10.6793 11.6871 10.6002 11.5755C10.5006 11.4487 10.4019 11.3213 10.3041 11.1931C10.1782 11.027 10.023 10.8261 9.83976 10.5895C9.64791 10.3425 9.45783 10.0941 9.26954 9.84439L8.65862 9.03367C8.2836 8.53534 7.92574 8.02462 7.58566 7.50237C7.46304 7.31781 7.35145 7.12633 7.25147 6.92889C7.17424 6.77145 7.14089 6.65966 7.15142 6.59351C7.16413 6.47402 7.22087 6.36342 7.31081 6.28279C7.40403 6.19628 7.51244 6.11001 7.6332 6.02138C7.75575 5.93519 7.88902 5.84314 8.03358 5.74857C8.17937 5.65311 8.31571 5.54864 8.44172 5.43392C8.56666 5.31904 8.67974 5.18293 8.77902 5.02419C8.8769 4.86738 8.94359 4.68092 8.97752 4.46778C9.0465 4.03451 8.93988 3.59155 8.68082 3.23508C8.51313 3.01132 8.35722 2.77916 8.21371 2.53953C8.04914 2.26913 7.86602 2.01019 7.66566 1.76452C7.47155 1.52359 7.25283 1.30309 7.01301 1.10652C6.79568 0.924923 6.53266 0.805061 6.25204 0.75974C5.81426 0.691177 5.36708 0.796011 5.00742 1.05152C4.6744 1.2908 4.38233 1.50532 4.13104 1.69611C3.89034 1.87632 3.66951 2.08111 3.47222 2.30711C3.28009 2.53193 3.12514 2.78543 3.01309 3.05823C2.8794 3.39618 2.78605 3.74847 2.73495 4.10796C2.64267 4.68753 2.64136 5.30402 2.72997 5.95725C2.81875 6.60944 2.97352 7.27092 3.19584 7.93873C3.41799 8.60758 3.71205 9.27591 4.07573 9.94443C4.43958 10.6119 4.84739 11.2561 5.2981 11.877C5.74898 12.4968 6.24018 13.0821 6.77098 13.6305C7.30072 14.1788 7.85519 14.6674 8.43366 15.0942C9.01089 15.5218 9.60392 15.8777 10.2103 16.1636C10.7839 16.4395 11.3947 16.632 12.0237 16.7351C12.3836 16.7915 12.7486 16.8092 13.1122 16.7879C13.4122 16.7688 13.7069 16.7018 13.9851 16.5894C14.2526 16.4809 14.515 16.337 14.7761 16.1596C15.0374 15.9811 15.3302 15.7754 15.6571 15.5405C16.0142 15.2809 16.2532 14.8923 16.3223 14.4591C16.3396 14.273 16.3321 14.0855 16.3001 13.9013C16.2671 13.7085 16.2023 13.5223 16.1082 13.3502C16.0099 13.1699 15.9043 12.9935 15.7919 12.8215C15.6761 12.6437 15.5504 12.4723 15.4154 12.3082C15.2851 12.1498 15.1543 11.9918 15.023 11.8342C14.908 11.6967 14.7972 11.5559 14.6908 11.4117C14.5613 11.2351 14.397 11.0862 14.2077 10.9741ZM13.0514 15.7279C12.7639 15.7502 12.4747 15.7358 12.1909 15.6852C11.6467 15.5891 11.1186 15.4183 10.6219 15.1779C10.0656 14.9115 9.5386 14.5891 9.04907 14.2159C7.96106 13.3838 7.00074 12.4 6.1982 11.2953C5.79028 10.7337 5.41493 10.1497 5.07396 9.54609C4.74259 8.96222 4.46491 8.35015 4.24426 7.71726C4.03792 7.13169 3.8888 6.52799 3.79892 5.91444C3.71634 5.36274 3.71686 4.8021 3.80045 4.2508C3.84468 3.97132 3.92252 3.69813 4.03232 3.43703C4.12928 3.21765 4.25335 3.02622 4.40403 2.86588C4.55381 2.70433 4.73142 2.55253 4.93457 2.41121C5.13895 2.269 5.3721 2.10334 5.63384 1.91526C5.6978 1.86794 5.77095 1.83416 5.84873 1.81603C5.9265 1.7979 6.00724 1.7958 6.08592 1.80987C6.15258 1.81497 6.24764 1.87405 6.37078 1.9892C6.49392 2.10436 6.62589 2.2392 6.7653 2.39566C7.06604 2.73571 7.33518 3.10188 7.56944 3.48969C7.67707 3.66806 7.76425 3.83137 7.83147 3.97648C7.89869 4.12158 7.92723 4.22939 7.91586 4.30079C7.90646 4.42122 7.84914 4.53297 7.75648 4.61151C7.66493 4.68752 7.55652 4.77378 7.43409 4.87291C7.3097 4.97066 7.17659 5.06165 7.0337 5.14573C6.88975 5.22964 6.75341 5.33411 6.62574 5.45932C6.49746 5.58578 6.38388 5.72603 6.2871 5.87746C6.18369 6.04538 6.11645 6.23265 6.0896 6.42757C6.0593 6.65205 6.07045 6.86905 6.122 7.07842C6.17338 7.28884 6.26436 7.48288 6.39513 7.65951L9.7278 12.1949C9.85546 12.3729 10.018 12.5238 10.2058 12.6384C10.3936 12.753 10.6028 12.829 10.8208 12.8619C11.0184 12.9037 11.223 12.899 11.4183 12.8482C11.7605 12.7523 12.079 12.5877 12.3539 12.3647C12.4908 12.2571 12.6153 12.1583 12.7327 12.0702C12.8478 11.9829 12.9649 11.9109 13.0813 11.856C13.189 11.8031 13.3105 11.7842 13.4295 11.802C13.507 11.8142 13.605 11.8749 13.7239 11.9829C13.8427 12.0909 13.9713 12.2263 14.1099 12.388C14.2485 12.5497 14.39 12.727 14.5359 12.9178C14.6808 13.1085 14.8076 13.2963 14.914 13.482C15.0196 13.6665 15.1075 13.8321 15.1747 13.9772C15.2419 14.1223 15.2707 14.2291 15.2591 14.3015C15.2477 14.3781 15.2206 14.4514 15.1795 14.5171C15.1383 14.5829 15.084 14.6395 15.0198 14.6836C14.7454 14.8762 14.5117 15.045 14.3194 15.1869C14.1321 15.3271 13.9305 15.4476 13.718 15.5465C13.5077 15.6435 13.2823 15.7048 13.0514 15.7279Z" fill="white"/>
</svg>
