<svg width="16" height="14" viewBox="0 0 16 14" fill="none" xmlns="http://www.w3.org/2000/svg">
<path d="M1.21101 5.28266V12.0424H14.7885V5.28266L7.99974 7.73014L1.21101 5.28266ZM1.21101 1.78626V4.11719L7.99974 6.68122L14.7885 4.11719V1.78626H1.21101ZM1.21101 0.387701H14.7885C15.2386 0.387701 15.4401 0.547893 15.7584 0.853887C16.0767 1.15988 15.9886 1.58661 15.9886 2.01935V11.8093C15.9886 12.242 16.0767 12.6687 15.7584 12.9747C15.4401 13.2807 15.2386 13.4409 14.7885 13.4409H1.21101C0.760884 13.4409 0.559472 13.2807 0.241188 12.9747C-0.077096 12.6687 0.0109168 12.242 0.0109168 11.8093L0.0109146 2.01935C0.0109146 1.58661 -0.0770201 1.15988 0.241264 0.853887C0.559548 0.547893 0.760884 0.387701 1.21101 0.387701Z" fill="white"/>
</svg>
