<svg width="54" height="54" viewBox="0 0 54 54" fill="none" xmlns="http://www.w3.org/2000/svg">
<path d="M51.4046 20.1521L31.678 14.841L28.225 1.90659C27.9362 0.826287 26.7808 0.198325 25.6466 0.499002L1.59521 6.9702C0.461013 7.27353 -0.222687 8.40173 0.0661627 9.48204L8.62566 41.548C8.91451 42.6283 10.0673 43.2589 11.1988 42.9502L20.7733 40.3772L19.4695 45.2679C19.1806 46.3482 19.8643 47.4764 20.9985 47.777L42.49 53.5617C43.6242 53.8677 44.7743 53.2398 45.0658 52.1541L52.9363 22.6612C53.2225 21.5809 52.5388 20.4527 51.4046 20.1521ZM4.32736 10.0834L25.0769 4.50625L32.7565 33.2914L12.0071 38.8685L4.32736 10.0834ZM41.5466 49.5492L23.4895 44.592L24.9099 39.265L35.2475 36.4791C36.3817 36.1784 37.0707 35.0502 36.7792 33.9699L32.7831 18.9973L48.5426 23.3371L41.5466 49.5492Z" fill="white"/>
</svg>
