<svg width="67" height="40" viewBox="0 0 67 40" fill="none" xmlns="http://www.w3.org/2000/svg">
<g clip-path="url(#clip0)">
<path d="M16.7502 23.2913C20.6046 23.2913 23.7293 20.1667 23.7293 16.3122C23.7293 12.4577 20.6046 9.33301 16.7502 9.33301C12.8957 9.33301 9.771 12.4577 9.771 16.3122C9.771 20.1667 12.8957 23.2913 16.7502 23.2913Z" fill="white"/>
<path d="M2.7915 35.4354C2.7915 35.4354 6.69984 26.6416 16.7498 26.6416C26.7998 26.6416 30.7082 35.4354 30.7082 35.4354V40.0416H2.7915V35.4354Z" fill="white"/>
<path d="M64.2082 35.4354C64.2082 35.4354 60.2998 26.6416 50.2498 26.6416C40.1998 26.6416 36.2915 35.4354 36.2915 35.4354V40.0416H64.2082V35.4354Z" fill="white"/>
<path d="M33.5 19.1045C38.1254 19.1045 41.875 15.3549 41.875 10.7295C41.875 6.10411 38.1254 2.35449 33.5 2.35449C28.8746 2.35449 25.125 6.10411 25.125 10.7295C25.125 15.3549 28.8746 19.1045 33.5 19.1045Z" fill="white"/>
<path d="M50.25 34.5977C50.25 34.5977 45.6438 24.1289 33.5 24.1289C21.3563 24.1289 16.75 34.5977 16.75 34.5977V40.0414H50.25V34.5977Z" fill="white"/>
<path d="M50.2502 23.2913C54.1047 23.2913 57.2293 20.1667 57.2293 16.3122C57.2293 12.4577 54.1047 9.33301 50.2502 9.33301C46.3957 9.33301 43.271 12.4577 43.271 16.3122C43.271 20.1667 46.3957 23.2913 50.2502 23.2913Z" fill="white"/>
<path d="M16.7502 23.2913C20.6046 23.2913 23.7293 20.1667 23.7293 16.3122C23.7293 12.4577 20.6046 9.33301 16.7502 9.33301C12.8957 9.33301 9.771 12.4577 9.771 16.3122C9.771 20.1667 12.8957 23.2913 16.7502 23.2913Z" fill="white"/>
<path d="M50.2502 23.2913C54.1047 23.2913 57.2293 20.1667 57.2293 16.3122C57.2293 12.4577 54.1047 9.33301 50.2502 9.33301C46.3957 9.33301 43.271 12.4577 43.271 16.3122C43.271 20.1667 46.3957 23.2913 50.2502 23.2913Z" fill="white"/>
</g>
<defs>
<clipPath id="clip0">
<rect width="67" height="40" fill="white"/>
</clipPath>
</defs>
</svg>
