<svg width="74" height="40" viewBox="0 0 74 40" fill="none" xmlns="http://www.w3.org/2000/svg">
<path d="M2.5307 18.4794V32.963H30.8985V18.4794L16.7146 23.7234L2.5307 18.4794ZM2.5307 10.9878V15.9822L16.7146 21.476L30.8985 15.9822V10.9878H2.5307ZM2.5307 7.99122H30.8985C31.839 7.99122 32.26 8.33446 32.925 8.99009C33.59 9.64573 33.4059 10.5601 33.4059 11.4873V32.4636C33.4059 33.3908 33.59 34.3051 32.925 34.9608C32.26 35.6164 31.839 35.9596 30.8985 35.9596H2.5307C1.59025 35.9596 1.16943 35.6164 0.504431 34.9608C-0.160569 34.3051 0.0233188 33.3908 0.0233188 32.4636L0.0233144 11.4873C0.0233144 10.5601 -0.16041 9.64573 0.50459 8.99009C1.16959 8.33446 1.59025 7.99122 2.5307 7.99122Z" fill="white"/>
<path fill-rule="evenodd" clip-rule="evenodd" d="M64.5696 25.0527C64.1285 24.7886 63.6395 24.6117 63.1299 24.5321C62.6579 24.4309 62.1684 24.442 61.7016 24.5643C61.2955 24.6849 60.9013 24.8416 60.5239 25.0326C60.157 25.2168 59.8122 25.4411 59.4962 25.7013C59.1886 25.9567 58.8924 26.1885 58.6056 26.394C58.3448 26.5831 58.0692 26.7514 57.7813 26.8973C57.4913 27.0406 57.1587 27.0764 56.8441 26.998C56.5295 26.9196 56.2539 26.7324 56.0677 26.4704C55.8331 26.1727 55.6008 25.8735 55.3705 25.5727C55.0741 25.1825 54.7087 24.7108 54.2772 24.1555C53.8255 23.5755 53.3779 22.9923 52.9346 22.4061L51.4961 20.5026C50.6131 19.3327 49.7705 18.1335 48.9699 16.9073C48.6812 16.474 48.4185 16.0244 48.1832 15.5608C48.0014 15.1911 47.923 14.9285 47.9479 14.7731C47.978 14.4925 48.1119 14.2326 48.324 14.0431C48.5437 13.8398 48.7993 13.637 49.084 13.4286C49.3729 13.226 49.6871 13.0096 50.0279 12.7873C50.3716 12.5628 50.693 12.3172 50.9901 12.0476C51.2847 11.7776 51.5514 11.4577 51.7855 11.0847C52.0164 10.7163 52.1738 10.2782 52.2541 9.77752C52.4173 8.75973 52.1667 7.71944 51.5567 6.88249C51.1619 6.35714 50.7948 5.81205 50.457 5.24939C50.0695 4.61449 49.6384 4.00652 49.1666 3.42978C48.7095 2.86413 48.1945 2.3465 47.6296 1.88513C47.1177 1.45889 46.4981 1.17772 45.8369 1.07166C44.8054 0.911225 43.7515 1.15809 42.9036 1.75875C42.1185 2.32126 41.4299 2.82553 40.8375 3.27403C40.27 3.69765 39.7494 4.17901 39.2841 4.71013C38.831 5.23847 38.4655 5.83413 38.2011 6.47505C37.8856 7.26904 37.6651 8.09666 37.5442 8.9411C37.3259 10.3026 37.3219 11.7506 37.5298 13.2849C37.7381 14.8166 38.1018 16.3702 38.6248 17.9384C39.1473 19.5092 39.8393 21.0786 40.6953 22.6483C41.5518 24.2156 42.5119 25.7283 43.5731 27.1859C44.6346 28.6412 45.7913 30.0152 47.0413 31.3026C48.2889 32.5897 49.5948 33.7367 50.9573 34.7383C52.3169 35.742 53.7139 36.5771 55.1423 37.2477C56.4936 37.8949 57.9327 38.3462 59.4148 38.5876C60.2628 38.7196 61.1228 38.7607 61.9798 38.7102C62.6866 38.6649 63.3813 38.507 64.0369 38.2427C64.6676 37.9872 65.286 37.649 65.9016 37.2319C66.5176 36.8124 67.208 36.3286 67.9786 35.7765C68.8203 35.1661 69.3841 34.2531 69.5475 33.2354C69.5886 32.7984 69.5713 32.358 69.496 31.9254C69.4187 31.4725 69.2661 31.0352 69.0445 30.6312C68.8132 30.2078 68.5648 29.7937 68.3 29.3898C68.0273 28.9722 67.7315 28.5698 67.4137 28.1845C67.1068 27.8126 66.7987 27.4417 66.4895 27.0718C66.2187 26.7491 65.9579 26.4183 65.7075 26.08C65.4025 25.6652 65.0154 25.3157 64.5696 25.0527ZM61.838 36.2204C61.1606 36.2732 60.4791 36.2398 59.8102 36.1211C58.528 35.8962 57.2837 35.496 56.1136 34.9319C54.8033 34.3069 53.5618 33.5504 52.4087 32.6745C49.8461 30.7216 47.5845 28.4121 45.6949 25.8184C44.7345 24.4999 43.8508 23.1286 43.0482 21.7113C42.2682 20.3403 41.6147 18.903 41.0957 17.4168C40.6103 16.0416 40.2597 14.6238 40.0488 13.1828C39.855 11.887 39.857 10.5702 40.0548 9.27512C40.1594 8.61861 40.3432 7.9768 40.6024 7.36336C40.8312 6.84794 41.1238 6.39812 41.4791 6.0213C41.8323 5.64161 42.251 5.28481 42.73 4.95258C43.2118 4.61827 43.7614 4.22882 44.3785 3.78669C44.5293 3.67545 44.7017 3.596 44.885 3.5533C45.0683 3.5106 45.2586 3.50556 45.4439 3.53849C45.601 3.55039 45.825 3.68902 46.115 3.95933C46.405 4.22964 46.7158 4.54618 47.0441 4.91349C47.7522 5.71181 48.3859 6.57151 48.9374 7.48211C49.1908 7.90092 49.396 8.28439 49.5542 8.62513C49.7124 8.96586 49.7795 9.21905 49.7526 9.38677C49.7303 9.66966 49.595 9.93222 49.3766 10.1168C49.1607 10.2955 48.9051 10.4983 48.6165 10.7313C48.3232 10.9611 48.0094 11.175 47.6726 11.3727C47.3333 11.57 47.0118 11.8155 46.7108 12.1098C46.4083 12.407 46.1405 12.7366 45.9122 13.0924C45.6683 13.487 45.5095 13.927 45.446 14.3849C45.3743 14.9122 45.4002 15.4219 45.5214 15.9136C45.6422 16.4077 45.8563 16.8634 46.1642 17.2781L54.0111 27.9265C54.3116 28.3445 54.6946 28.6985 55.1369 28.9674C55.5793 29.2364 56.0721 29.4146 56.5858 29.4916C57.0513 29.5895 57.5336 29.5782 57.9937 29.4587C58.8002 29.2329 59.5509 28.8458 60.1992 28.3217C60.5218 28.0687 60.8154 27.8364 61.0922 27.6294C61.3636 27.424 61.6395 27.2547 61.914 27.1257C62.1678 27.0012 62.4542 26.9568 62.7345 26.9985C62.9171 27.027 63.1481 27.1693 63.428 27.4229C63.7079 27.6764 64.0108 27.9942 64.3371 28.3739C64.6634 28.7535 64.9967 29.1697 65.3403 29.6177C65.6813 30.0654 65.9798 30.5064 66.2304 30.9425C66.4789 31.3757 66.6858 31.7645 66.844 32.1053C67.0022 32.446 67.0697 32.6967 67.0424 32.8669C67.0155 33.0466 66.9515 33.219 66.8544 33.3734C66.7574 33.5278 66.6292 33.661 66.478 33.7647C65.831 34.2174 65.2802 34.6142 64.8267 34.9479C64.3851 35.2773 63.91 35.5607 63.409 35.7934C62.9133 36.0214 62.3822 36.1658 61.838 36.2204Z" fill="white"/>
</svg>
